
            <svg data-logo="logo" xmlns="http://www.w3.org/2000/svg" viewBox="0 0 219 42">
                <g id="logogram" transform="translate(0, 1)"><path d="M12.124 25.14V35.1809C12.124 35.5659 11.9711 35.935 11.6989 36.2071C11.4269 36.4793 11.0577 36.6322 10.6728 36.6322C10.2879 36.6322 9.9188 36.4793 9.6466 36.2071C9.3744 35.935 9.2215 35.5659 9.2215 35.1809V25.1539C9.62563 25.449 10.11 25.6138 10.6103 25.6261C11.1555 25.6417 11.6898 25.4702 12.124 25.14ZM24.4842 22.2375C24.1159 22.2375 23.7626 22.3839 23.5022 22.6443C23.2418 22.9047 23.0954 23.258 23.0954 23.6263V25.3761C23.0954 25.7611 23.2483 26.1302 23.5205 26.4023C23.7926 26.6745 24.1617 26.8274 24.5467 26.8274C24.9316 26.8274 25.3008 26.6745 25.5728 26.4023C25.845 26.1302 25.998 25.7611 25.998 25.3761V23.6957C26.0088 23.4966 25.9766 23.2974 25.9035 23.1119C25.8305 22.9263 25.7184 22.7586 25.5747 22.6202C25.4311 22.4819 25.2593 22.3761 25.0712 22.31C24.883 22.244 24.6828 22.2193 24.4842 22.2375ZM6.06897 28.9453C5.56924 28.9303 5.08547 28.7659 4.68019 28.4731V38.5418C4.68019 38.9285 4.83381 39.2995 5.10729 39.5729C5.38076 39.8464 5.75166 40 6.13841 40C6.52515 40 6.89605 39.8464 7.16952 39.5729C7.443 39.2995 7.59662 38.9285 7.59662 38.5418V28.5426C7.14312 28.8357 6.60803 28.9768 6.06897 28.9453ZM19.9568 19.2238C19.7686 19.2144 19.5805 19.2434 19.4039 19.309C19.2274 19.3745 19.066 19.4754 18.9295 19.6052C18.7931 19.7352 18.6846 19.8914 18.6105 20.0646C18.5365 20.2378 18.4983 20.4243 18.4985 20.6126V28.3481C18.4985 28.7349 18.6521 29.1058 18.9256 29.3793C19.1992 29.6527 19.57 29.8063 19.9568 29.8063C20.3435 29.8063 20.7145 29.6527 20.9879 29.3793C21.2614 29.1058 21.415 28.7349 21.415 28.3481V20.7098C21.4261 20.5094 21.3936 20.309 21.3197 20.1224C21.2458 19.9357 21.1325 19.7673 20.9872 19.6287C20.842 19.4901 20.6685 19.3845 20.4787 19.3195C20.2888 19.2544 20.087 19.2312 19.8873 19.2516L19.9568 19.2238ZM15.346 22.1958C14.8229 22.1922 14.3137 22.0274 13.8878 21.7236V31.8201C13.8878 32.2069 14.0414 32.5778 14.3148 32.8512C14.5884 33.1247 14.9592 33.2783 15.346 33.2783C15.7328 33.2783 16.1036 33.1247 16.3772 32.8512C16.6506 32.5778 16.8042 32.2069 16.8042 31.8201V21.7375C16.3637 22.0657 15.8258 22.2368 15.2766 22.2236L15.346 22.1958ZM2.91644 29.9313V1.72522C2.91278 1.3814 2.77363 1.05293 2.5292 0.811097C2.28478 0.569269 1.95482 0.433641 1.61098 0.433655H1.30545C0.961619 0.433641 0.631659 0.569269 0.387233 0.811097C0.142808 1.05293 0.00365249 1.3814 0 1.72522V29.9313C0 30.2776 0.137545 30.6096 0.382359 30.8545C0.627173 31.0993 0.95923 31.2368 1.30545 31.2368H1.61098C1.95722 31.2368 2.28926 31.0993 2.53408 30.8545C2.77891 30.6096 2.91644 30.2776 2.91644 29.9313ZM6.22173 27.8759H5.9162C5.56998 27.8759 5.23792 27.7385 4.99311 27.4936C4.74829 27.2488 4.61075 26.9167 4.61075 26.5705V5.08607C4.61441 4.74226 4.75356 4.41376 4.99798 4.17194C5.24241 3.93012 5.57237 3.79449 5.9162 3.7945H6.22173C6.56557 3.79449 6.89553 3.93012 7.13995 4.17194C7.38438 4.41376 7.52353 4.74226 7.52719 5.08607V26.5983C7.52719 26.9445 7.38964 27.2765 7.14483 27.5214C6.90001 27.7662 6.56795 27.9037 6.22173 27.9037V27.8759ZM10.8186 24.5706H10.4992C10.1567 24.5706 9.82811 24.4345 9.58591 24.1923C9.34371 23.9501 9.20761 23.6217 9.20761 23.2791V8.41914C9.2058 8.24836 9.23788 8.07891 9.30191 7.92061C9.36593 7.7623 9.46078 7.61828 9.58091 7.49688C9.70104 7.37547 9.84409 7.27909 10.0017 7.21332C10.1593 7.14754 10.3284 7.11367 10.4992 7.11368H10.8186C11.1625 7.11735 11.4909 7.25649 11.7327 7.50092C11.9746 7.74534 12.1102 8.0753 12.1102 8.41914V23.2791C12.1102 23.6217 11.9741 23.9501 11.7319 24.1923C11.4897 24.4345 11.1612 24.5706 10.8186 24.5706ZM15.4155 21.1681H15.1238C14.7799 21.1681 14.45 21.0326 14.2055 20.7907C13.9611 20.5489 13.822 20.2204 13.8184 19.8766V11.8772C13.807 11.6989 13.8322 11.5201 13.8928 11.352C13.9532 11.1839 14.0476 11.0299 14.17 10.8998C14.2923 10.7695 14.4401 10.6659 14.6043 10.5951C14.7683 10.5244 14.9451 10.488 15.1238 10.4884H15.4293C15.7756 10.4884 16.1076 10.6259 16.3525 10.8708C16.5973 11.1156 16.7348 11.4476 16.7348 11.7939V19.8488C16.7366 20.0214 16.7042 20.1927 16.6394 20.3526C16.5747 20.5126 16.4788 20.6582 16.3573 20.7809C16.2359 20.9036 16.0915 21.0009 15.9321 21.0674C15.7728 21.134 15.602 21.1681 15.4293 21.1681H15.4155ZM20.0262 18.1823H19.7207C19.3744 18.1823 19.0424 18.0448 18.7975 17.7999C18.5527 17.5551 18.4152 17.223 18.4152 16.8768V14.8075C18.4188 14.4637 18.558 14.1352 18.8024 13.8934C19.0468 13.6515 19.3768 13.516 19.7207 13.516H20.0262C20.3701 13.516 20.7 13.6515 20.9445 13.8934C21.1889 14.1352 21.328 14.4637 21.3317 14.8075V16.8768C21.3317 17.2207 21.1961 17.5506 20.9542 17.7951C20.7124 18.0395 20.384 18.1786 20.0401 18.1823H20.0262Z" fill="#394149"/></g>
                <g id="logotype" transform="translate(32, 0)"><path fill="#111111" d="M17.81 35.35L17.81 35.35Q13.06 35.35 10.23 33.26Q7.40 31.18 7.14 27.48L7.14 27.48L12.21 27.48Q12.48 29.40 13.95 30.38Q15.42 31.35 18.02 31.35L18.02 31.35Q20.32 31.35 21.49 30.61Q22.65 29.87 22.65 28.41L22.65 28.41Q22.65 27.27 21.91 26.60Q21.17 25.93 19.50 25.58L19.50 25.58L14.63 24.59Q11.34 23.89 9.70 22.27Q8.07 20.65 8.07 18.05L8.07 18.05Q8.07 14.76 10.56 12.89Q13.06 11.02 17.35 11.02L17.35 11.02Q21.69 11.02 24.35 12.98Q27 14.93 27.32 18.43L27.32 18.43L22.25 18.43Q21.40 14.88 17.08 14.88L17.08 14.88Q15.13 14.88 14.02 15.57Q12.91 16.27 12.91 17.59L12.91 17.59Q12.91 19.60 15.80 20.18L15.80 20.18L20.88 21.23Q24.32 21.93 25.91 23.58Q27.50 25.23 27.50 28.03L27.50 28.03Q27.50 31.50 24.97 33.42Q22.45 35.35 17.81 35.35ZM34.44 35L29.60 35L29.60 17.50L34.44 17.50L34.44 35ZM32.02 15.78L32.02 15.78Q30.91 15.78 30.14 15.01Q29.36 14.23 29.36 13.13L29.36 13.13Q29.36 12.02 30.14 11.24Q30.91 10.47 32.02 10.47L32.02 10.47Q33.13 10.47 33.90 11.24Q34.67 12.02 34.67 13.13L34.67 13.13Q34.67 14.23 33.90 15.01Q33.13 15.78 32.02 15.78ZM45.73 42.35L45.73 42.35Q41.79 42.35 39.32 40.76Q36.86 39.17 36.39 36.34L36.39 36.34L41.53 36.34Q42.23 38.50 45.58 38.50L45.58 38.50Q47.85 38.50 49.06 37.46Q50.28 36.43 50.28 34.48L50.28 34.48L50.28 32.14L50.13 32.14Q49.34 33.54 47.96 34.27Q46.57 35 44.65 35L44.65 35Q42.17 35 40.34 33.91Q38.52 32.81 37.51 30.80Q36.51 28.79 36.51 26.07L36.51 26.07Q36.51 21.99 38.77 19.57Q41.03 17.15 44.97 17.15L44.97 17.15Q47.18 17.15 48.74 18.00Q50.30 18.84 51.24 20.36L51.24 20.36L52.46 20.36L52.46 17.50L57.36 17.50L57.36 22.28L54.97 22.28L54.97 34.53Q54.97 38.27 52.58 40.31Q50.19 42.35 45.73 42.35ZM45.84 30.80L45.84 30.80Q47.85 30.80 48.99 29.69Q50.13 28.58 50.13 26.66L50.13 26.66L50.13 25.43Q50.13 23.54 48.98 22.44Q47.83 21.35 45.84 21.35L45.84 21.35Q43.71 21.35 42.53 22.60Q41.35 23.86 41.35 26.10L41.35 26.10Q41.35 28.35 42.53 29.57Q43.71 30.80 45.84 30.80ZM65.35 35L60.51 35L60.51 22.28L58.12 22.28L58.12 17.50L63.02 17.50L63.02 20.36L64.25 20.36Q65.27 18.84 66.81 18.01Q68.36 17.18 70.66 17.18L70.66 17.18Q74.31 17.18 76.31 19.18Q78.30 21.17 78.30 24.53L78.30 24.53L78.30 35L73.46 35L73.46 25.43Q73.46 23.51 72.43 22.50Q71.39 21.50 69.41 21.50L69.41 21.50Q67.43 21.50 66.39 22.50Q65.35 23.51 65.35 25.43L65.35 25.43L65.35 35ZM94.17 35L81.51 35L81.51 11.38L93.65 11.38Q95.78 11.38 97.38 12.13Q98.98 12.89 99.89 14.25Q100.79 15.60 100.79 17.38L100.79 17.38Q100.79 19.16 99.86 20.40Q98.93 21.64 97.32 22.25L97.32 22.25L97.32 22.37Q98.69 22.72 99.73 23.54Q100.76 24.35 101.36 25.55Q101.96 26.75 101.96 28.26L101.96 28.26Q101.96 30.27 100.97 31.79Q99.98 33.31 98.24 34.15Q96.50 35 94.17 35L94.17 35ZM86.44 24.70L86.44 30.68L93.30 30.68Q95.08 30.68 96.04 29.91Q97.00 29.14 97.00 27.68L97.00 27.68Q97.00 26.22 96.05 25.46Q95.10 24.70 93.33 24.70L93.33 24.70L86.44 24.70ZM86.44 15.69L86.44 20.80L92.95 20.80Q94.35 20.80 95.09 20.14Q95.83 19.48 95.83 18.23L95.83 18.23Q95.83 16.98 95.09 16.33Q94.35 15.69 92.95 15.69L92.95 15.69L86.44 15.69ZM110.27 35L105.52 35L105.52 22.28L103.13 22.28L103.13 17.50L108.03 17.50L108.03 20.94L109.25 20.94Q109.95 19.10 111.47 18.20Q112.98 17.30 114.88 17.30L114.88 17.30L116.37 17.30L116.37 21.50L114.68 21.50Q112.40 21.50 111.34 22.78Q110.27 24.06 110.27 26.16L110.27 26.16L110.27 35ZM122.87 35L118.03 35L118.03 17.50L122.87 17.50L122.87 35ZM120.45 15.78L120.45 15.78Q119.34 15.78 118.57 15.01Q117.80 14.23 117.80 13.13L117.80 13.13Q117.80 12.02 118.57 11.24Q119.34 10.47 120.45 10.47L120.45 10.47Q121.56 10.47 122.33 11.24Q123.10 12.02 123.10 13.13L123.10 13.13Q123.10 14.23 122.33 15.01Q121.56 15.78 120.45 15.78ZM133.17 35.35L133.17 35.35Q130.48 35.35 128.60 34.21Q126.72 33.08 125.76 31.02Q124.80 28.96 124.80 26.25L124.80 26.25Q124.80 23.51 125.73 21.45Q126.66 19.40 128.46 18.27Q130.25 17.15 132.76 17.15L132.76 17.15Q134.68 17.15 136.07 17.86Q137.45 18.58 138.21 19.89L138.21 19.89L138.33 19.89L138.33 10.50L143.17 10.50L143.17 30.22L145.56 30.22L145.56 35L140.66 35L140.66 32.14L139.44 32.14Q138.50 33.66 136.94 34.50Q135.38 35.35 133.17 35.35ZM134.07 31.15L134.07 31.15Q136.03 31.15 137.18 30.06Q138.33 28.96 138.33 27.04L138.33 27.04L138.33 25.46Q138.33 23.54 137.18 22.44Q136.03 21.35 134.07 21.35L134.07 21.35Q131.85 21.35 130.75 22.66Q129.64 23.98 129.64 26.25L129.64 26.25Q129.64 28.52 130.75 29.84Q131.85 31.15 134.07 31.15ZM155.63 42.35L155.63 42.35Q151.69 42.35 149.22 40.76Q146.76 39.17 146.29 36.34L146.29 36.34L151.43 36.34Q152.13 38.50 155.48 38.50L155.48 38.50Q157.75 38.50 158.96 37.46Q160.18 36.43 160.18 34.48L160.18 34.48L160.18 32.14L160.03 32.14Q159.24 33.54 157.86 34.27Q156.47 35 154.55 35L154.55 35Q152.07 35 150.24 33.91Q148.42 32.81 147.41 30.80Q146.41 28.79 146.41 26.07L146.41 26.07Q146.41 21.99 148.67 19.57Q150.93 17.15 154.87 17.15L154.87 17.15Q157.08 17.15 158.64 18.00Q160.20 18.84 161.14 20.36L161.14 20.36L162.36 20.36L162.36 17.50L167.26 17.50L167.26 22.28L164.87 22.28L164.87 34.53Q164.87 38.27 162.48 40.31Q160.09 42.35 155.63 42.35ZM155.74 30.80L155.74 30.80Q157.75 30.80 158.89 29.69Q160.03 28.58 160.03 26.66L160.03 26.66L160.03 25.43Q160.03 23.54 158.88 22.44Q157.73 21.35 155.74 21.35L155.74 21.35Q153.61 21.35 152.43 22.60Q151.25 23.86 151.25 26.10L151.25 26.10Q151.25 28.35 152.43 29.57Q153.61 30.80 155.74 30.80ZM177.27 35.35L177.27 35.35Q174.44 35.35 172.34 34.23Q170.24 33.10 169.10 31.05Q167.96 28.99 167.96 26.19L167.96 26.19Q167.96 23.39 169.07 21.36Q170.18 19.34 172.24 18.24Q174.29 17.15 177.09 17.15L177.09 17.15Q179.83 17.15 181.80 18.20Q183.77 19.25 184.82 21.20Q185.87 23.16 185.87 25.87L185.87 25.87L185.87 27.50L172.60 27.50Q172.89 29.46 174.09 30.48Q175.28 31.50 177.24 31.50L177.24 31.50Q178.78 31.50 179.69 30.98Q180.59 30.45 180.97 29.37L180.97 29.37L185.81 29.37Q185.23 32.17 182.98 33.76Q180.74 35.35 177.27 35.35ZM172.72 24.30L172.72 24.30L181.23 24.30Q181 22.63 179.95 21.80Q178.90 20.97 177.12 20.97L177.12 20.97Q175.34 20.97 174.22 21.82Q173.10 22.66 172.72 24.30Z"/></g>
                
            </svg>
        